<?xml version="1.0" standalone="no"?>
<!DOCTYPE svg PUBLIC "-//W3C//DTD SVG 1.1//EN" "http://www.w3.org/Graphics/SVG/1.1/DTD/svg11.dtd" >
<svg xmlns="http://www.w3.org/2000/svg">
<metadata>Generated by IcoMoon</metadata>
<defs>
<font id="jsn-element-font" horiz-adv-x="1024">
<font-face units-per-em="1024" ascent="960" descent="-64" />
<missing-glyph horiz-adv-x="1024" />
<glyph unicode="&#x20;" horiz-adv-x="512" d="" />
<glyph unicode="&#xe600;" glyph-name="Alert" d="M512 938.667c270.549 0 490.667-220.117 490.667-490.667s-220.117-490.667-490.667-490.667-490.667 220.117-490.667 490.667 220.117 490.667 490.667 490.667zM512 960c-282.773 0-512-229.227-512-512s229.227-512 512-512 512 229.227 512 512-229.227 512-512 512v0zM512 773.312l-298.667-517.312h597.333l-298.667 517.312zM512 730.645l261.717-453.312h-523.435l261.717 453.312zM490.667 597.333h42.667v-192h-42.667v192zM490.667 362.667h42.667v-42.667h-42.667v42.667z" />
<glyph unicode="&#xe601;" glyph-name="Archive" d="M512 938.667c270.549 0 490.667-220.117 490.667-490.667s-220.117-490.667-490.667-490.667-490.667 220.117-490.667 490.667 220.117 490.667 490.667 490.667zM512 960c-282.773 0-512-229.227-512-512s229.227-512 512-512 512 229.227 512 512-229.227 512-512 512v0zM810.155 397.205c-0.149 0.555-0.149 1.173-0.384 1.685-0.021 0.043 0 0.085-0.021 0.128l-133.333 298.667c-2.176 4.821-7.445 7.061-12.395 5.781-0.875 0.235-1.728 0.533-2.688 0.533h-298.283c0 0-0.021 0-0.021 0h-0.363c-0.491 0-0.896-0.213-1.365-0.277-0.853-0.107-1.728-0.192-2.517-0.512-0.64-0.256-1.152-0.683-1.728-1.045s-1.195-0.661-1.685-1.152c-0.597-0.576-1.003-1.301-1.472-2.005-0.277-0.427-0.661-0.725-0.896-1.216l-138.667-298.667c-0.021-0.064-0.021-0.128-0.043-0.192-0.277-0.619-0.32-1.323-0.491-2.005-0.149-0.704-0.405-1.408-0.427-2.112 0-0.064-0.043-0.107-0.043-0.171v-192c0-5.888 4.779-10.667 10.667-10.667h576c5.888 0 10.667 4.779 10.667 10.667v192c0 0.021-0.021 0.064-0.021 0.085 0 0.832-0.277 1.643-0.491 2.475zM783.509 405.397l-133.696 0.576c-3.2-0.491-5.547-1.109-7.552-3.115s-3.136-4.736-3.136-7.552c0-65.024-58.496-116.245-133.781-116.651-30.955 0-61.909 12.544-84.885 34.432-23.531 22.379-36.459 51.563-36.459 82.24 0 2.837-1.131 5.568-3.136 7.552s-5.355 2.453-7.573 3.115l-132.523-0.597 128.704 277.269h290.261l123.776-277.269zM789.333 213.333h-554.667v170.709l128.448 0.576c2.688-32.597 17.579-63.147 42.603-86.976 26.923-25.621 63.232-40.32 100.352-40.32 82.517 0.448 147.968 55.531 153.941 127.275l129.323-0.555v-170.709zM362.667 512c-5.888 0-10.667-4.779-10.667-10.667s4.779-10.667 10.667-10.667h298.667c5.888 0 10.667 4.779 10.667 10.667s-4.779 10.667-10.667 10.667h-298.667zM405.333 597.333h213.333c5.888 0 10.667 4.779 10.667 10.667s-4.779 10.667-10.667 10.667h-213.333c-5.888 0-10.667-4.779-10.667-10.667s4.779-10.667 10.667-10.667z" />
<glyph unicode="&#xe602;" glyph-name="Arcodion" d="M512 938.667c270.549 0 490.667-220.117 490.667-490.667s-220.117-490.667-490.667-490.667-490.667 220.117-490.667 490.667 220.117 490.667 490.667 490.667zM512 960c-282.773 0-512-229.227-512-512s229.227-512 512-512 512 229.227 512 512-229.227 512-512 512v0zM768 533.333v170.667h-512v-170.667h42.667v-170.667h-42.667v-170.667h512v170.667h-42.667v170.667h42.667zM277.333 554.667v128h469.333v-128h-469.333zM746.667 341.333v-128h-469.333v128h469.333zM704 362.667h-384v170.667h384v-170.667zM362.667 490.667h106.667v-21.333h-106.667v21.333zM362.667 426.667h277.333v-21.333h-277.333v21.333zM320 640h41.344v-41.344h-41.344v41.344zM320 298.667h41.344v-41.344h-41.344v41.344z" />
<glyph unicode="&#xe603;" glyph-name="articlelist" d="M512 938.667c270.592 0 490.667-220.117 490.667-490.667s-220.075-490.667-490.667-490.667c-270.549 0-490.667 220.117-490.667 490.667s220.096 490.667 490.667 490.667zM512 960c-282.773 0-512-229.227-512-512s229.227-512 512-512c282.795 0 512 229.227 512 512s-229.248 512-512 512v0zM714.667 597.333v64h-469.333v-392.939c0-18.645 15.104-33.728 33.728-33.728h449.024c27.947 0 50.581 22.656 50.581 50.581v312.085h-64zM693.333 256h-426.667v384h426.667v-384zM312.768 560.192h337.195v-33.728h-337.195v33.728zM515.093 492.736h134.869v-33.707h-134.869v33.707zM515.093 425.323h134.869v-33.728h-134.869v33.728zM515.093 357.845h101.163v-33.707h-101.163v33.707zM312.768 492.736h168.576v-168.576h-168.576v168.576z" />
<glyph unicode="&#xe604;" glyph-name="Audio" d="M512 938.667c270.549 0 490.667-220.117 490.667-490.667s-220.117-490.667-490.667-490.667-490.667 220.117-490.667 490.667 220.117 490.667 490.667 490.667zM512 960c-282.773 0-512-229.227-512-512s229.227-512 512-512 512 229.227 512 512-229.227 512-512 512v0zM405.333 583.531v-250.304c-15.637 17.899-38.357 29.44-64 29.44-47.125 0-85.333-38.208-85.333-85.333s38.208-85.333 85.333-85.333 85.333 38.208 85.333 85.333v209.195l277.333 92.459v-160.427c-15.637 17.899-38.357 29.44-64 29.44-47.125 0-85.333-38.208-85.333-85.333s38.208-85.333 85.333-85.333 85.333 38.208 85.333 85.333v335.125l-320-114.261zM341.333 213.333c-35.285 0-64 28.715-64 64s28.715 64 64 64 64-28.715 64-64c0-35.285-28.715-64-64-64zM640 298.667c-35.285 0-64 28.715-64 64s28.715 64 64 64 64-28.715 64-64c0-35.285-28.715-64-64-64zM426.667 509.013v59.456l277.333 99.051v-66.069l-277.333-92.437z" />
<glyph unicode="&#xe606;" glyph-name="ButtonBar" d="M512 938.667c270.549 0 490.667-220.117 490.667-490.667s-220.117-490.667-490.667-490.667-490.667 220.117-490.667 490.667 220.117 490.667 490.667 490.667zM512 960c-282.773 0-512-229.227-512-512s229.227-512 512-512 512 229.227 512 512-229.227 512-512 512v0zM778.667 576h-533.333c-17.643 0-32-14.357-32-32v-192c0-17.643 14.357-32 32-32h533.333c17.643 0 32 14.357 32 32v192c0 17.643-14.357 32-32 32zM245.333 341.333c-5.888 0-10.667 4.8-10.667 10.667v192c0 5.888 4.779 10.667 10.667 10.667h160v-213.333h-160zM426.667 341.333v213.333h170.667v-213.333h-170.667zM789.333 352c0-5.867-4.8-10.667-10.667-10.667h-160v213.333h160c5.867 0 10.667-4.779 10.667-10.667v-192zM298.667 490.667h42.667v-85.333h-42.667v85.333zM490.667 490.667h42.667v-85.333h-42.667v85.333zM682.667 490.667h42.667v-85.333h-42.667v85.333z" />
<glyph unicode="&#xe607;" glyph-name="Button" d="M512 938.667c270.549 0 490.667-220.117 490.667-490.667s-220.117-490.667-490.667-490.667-490.667 220.117-490.667 490.667 220.117 490.667 490.667 490.667zM512 960c-282.773 0-512-229.227-512-512s229.227-512 512-512 512 229.227 512 512-229.227 512-512 512v0zM736 320h-448c-17.643 0-32 14.357-32 32v192c0 17.643 14.357 32 32 32h448c17.643 0 32-14.357 32-32v-192c0-17.643-14.357-32-32-32zM288 554.667c-5.888 0-10.667-4.779-10.667-10.667v-192c0-5.867 4.779-10.667 10.667-10.667h448c5.867 0 10.667 4.8 10.667 10.667v192c0 5.888-4.8 10.667-10.667 10.667h-448zM341.333 490.667h341.333v-85.333h-341.333v85.333z" />
<glyph unicode="&#xe608;" glyph-name="CalendarAlt" d="M512 938.667c270.549 0 490.667-220.117 490.667-490.667s-220.117-490.667-490.667-490.667-490.667 220.117-490.667 490.667 220.117 490.667 490.667 490.667zM512 960c-282.773 0-512-229.227-512-512s229.227-512 512-512 512 229.227 512 512-229.227 512-512 512v0zM362.667 405.333h298.667v-21.333h-298.667v21.333zM362.667 320h298.667v-21.333h-298.667v21.333zM405.333 704h21.333v-106.667h-21.333v106.667zM597.333 704h21.333v-106.667h-21.333v106.667zM448 661.333h128v-21.333h-128v21.333zM725.333 661.333h-85.333v-21.333h85.333c11.755 0 21.333-9.579 21.333-21.333v-106.667h-469.333v106.667c0 11.755 9.579 21.333 21.333 21.333h85.333v21.333h-85.333c-23.467 0-42.667-19.2-42.667-42.667v-384c0-23.467 19.2-42.667 42.667-42.667h426.667c23.467 0 42.667 19.2 42.667 42.667v384c0 23.467-19.2 42.667-42.667 42.667zM725.333 213.333h-426.667c-11.755 0-21.333 9.579-21.333 21.333v256h469.333v-256c0-11.755-9.579-21.333-21.333-21.333z" />
<glyph unicode="&#xe609;" glyph-name="Carousel" d="M512 938.667c270.549 0 490.667-220.117 490.667-490.667s-220.117-490.667-490.667-490.667-490.667 220.117-490.667 490.667 220.117 490.667 490.667 490.667zM512 960c-282.773 0-512-229.227-512-512s229.227-512 512-512 512 229.227 512 512-229.227 512-512 512v0zM199.232 524.395l-76.416-76.395 0.384-0.363 14.699-14.72 60.992-60.992 15.083 15.083-60.971 60.992 61.312 61.312zM827.605 525.248l-15.104-15.083 62.165-62.165-59.221-59.221 15.104-15.083 74.283 74.304zM468.395 341.931l-97.429 37.355-50.965-123.285h384l-79.403 259.115zM478.229 525.781c0-28.725-23.286-52.011-52.011-52.011s-52.011 23.286-52.011 52.011c0 28.725 23.286 52.011 52.011 52.011s52.011-23.286 52.011-52.011zM256 192h512v490.667h-512v-490.667zM277.333 661.333h469.333v-448h-469.333v448z" />
<glyph unicode="&#xe60a;" glyph-name="Categories" d="M512 938.667c270.549 0 490.667-220.117 490.667-490.667s-220.117-490.667-490.667-490.667-490.667 220.117-490.667 490.667 220.117 490.667 490.667 490.667zM512 960c-282.773 0-512-229.227-512-512s229.227-512 512-512 512 229.227 512 512-229.227 512-512 512v0zM768 576l-256 128-256-128 256-128 256 128zM512 680.149l208.299-104.149-208.299-104.149-208.299 104.149 208.299 104.149zM512 405.333l-170.667 85.333-85.333-42.667 256-128 256 128-85.333 42.667-170.667-85.333zM512 343.851l-208.299 104.149 37.632 18.816 170.667-85.333 170.667 85.333 37.632-18.816-208.299-104.149zM512 277.333l-170.667 85.333-85.333-42.667 256-128 256 128-85.333 42.667-170.667-85.333zM512 215.851l-208.299 104.149 37.632 18.816 170.667-85.333 170.667 85.333 37.632-18.816-208.299-104.149z" />
<glyph unicode="&#xe60b;" glyph-name="Comments" d="M512 938.667c270.549 0 490.667-220.117 490.667-490.667s-220.117-490.667-490.667-490.667-490.667 220.117-490.667 490.667 220.117 490.667 490.667 490.667zM512 960c-282.773 0-512-229.227-512-512s229.227-512 512-512 512 229.227 512 512-229.227 512-512 512v0zM640 384h-320v149.333h-85.333v-337.707l194.667 103.040h210.667v85.333zM768 294.251l-132.437 132.416h-272.896v277.333h405.333v-409.749zM384 448h260.395l102.272-102.251v336.917h-362.667v-234.667zM640 576h21.333v-21.333h-21.333v21.333zM554.667 576h21.333v-21.333h-21.333v21.333zM469.333 576h21.333v-21.333h-21.333v21.333z" />
<glyph unicode="&#xe60c;" glyph-name="Divider" d="M512 938.667c270.549 0 490.667-220.117 490.667-490.667s-220.117-490.667-490.667-490.667-490.667 220.117-490.667 490.667 220.117 490.667 490.667 490.667zM512 960c-282.773 0-512-229.227-512-512s229.227-512 512-512 512 229.227 512 512-229.227 512-512 512v0zM256 469.333h64v-21.333h-64v21.333zM362.667 469.333h64v-21.333h-64v21.333zM469.333 469.333h85.333v-21.333h-85.333v21.333zM597.333 469.333h64v-21.333h-64v21.333zM704 469.333h64v-21.333h-64v21.333zM682.667 533.333h-341.333v170.667h21.333v-149.333h298.667v149.333h21.333zM682.667 213.333h-21.333v149.333h-298.667v-149.333h-21.333v170.667h341.333z" />
<glyph unicode="&#xe60d;" glyph-name="easyslider" d="M512 938.667c270.933 0 490.667-219.733 490.667-490.667s-219.733-490.667-490.667-490.667c-270.933 0-490.667 219.733-490.667 490.667s219.733 490.667 490.667 490.667zM512 960c-283.733 0-512-228.267-512-512s228.267-512 512-512c283.733 0 512 228.267 512 512s-228.267 512-512 512v0zM561.067 640l-49.067 25.6-249.6-134.4 51.2-25.6 98.133-55.467 51.2-25.6 49.067-27.733 249.6 134.4-51.2 27.733-166.4-89.6-49.067 25.6 166.4 91.733-49.067 25.6-166.4-89.6-51.2 27.733zM595.2 403.2l-83.2-44.8-49.067 27.733-51.2 27.733-49.067 25.6-49.067 27.733-8.533 4.267-42.667-23.467 51.2-25.6 98.133-55.467 51.2-25.6 49.067-27.733 249.6 134.4-42.667 23.467zM595.2 320l-83.2-44.8-49.067 25.6-51.2 27.733-49.067 27.733-49.067 25.6-8.533 4.267-42.667-21.333 51.2-27.733 49.067-27.733 49.067-25.6 51.2-27.733 49.067-25.6 83.2 42.667 166.4 91.733-42.667 21.333z" />
<glyph unicode="&#xe60e;" glyph-name="GoogleMapo" d="M512 938.667c270.549 0 490.667-220.117 490.667-490.667s-220.117-490.667-490.667-490.667-490.667 220.117-490.667 490.667 220.117 490.667 490.667 490.667zM512 960c-282.773 0-512-229.227-512-512s229.227-512 512-512 512 229.227 512 512-229.227 512-512 512v0zM637.333 684.565l-74.539-46.379c2.816-6.699 5.056-13.675 6.997-20.779l67.541 42.027 109.333-68.032v-357.525l-110.677 77.824-121.344-85.333-121.344 85.333-110.379-77.632 2.517 182.016c-7.445 10.176-14.464 21.291-20.864 33.451l-3.563-256.96 132.288 93.035 121.344-85.333 121.344 85.333 132.011-92.821v410.475l-130.667 81.301zM405.333 711.104c-76.459 0-138.667-62.208-138.667-138.667 0-146.261 127.339-232.832 132.757-236.437l5.909-3.925 5.909 3.947c5.419 3.605 132.757 90.176 132.757 236.437 0 76.437-62.208 138.645-138.667 138.645zM405.333 522.667c-29.397 0-53.333 23.936-53.333 53.333s23.936 53.333 53.333 53.333 53.333-23.936 53.333-53.333-23.936-53.333-53.333-53.333z" />
<glyph unicode="&#xe60f;" glyph-name="Heading" d="M512 938.667c270.549 0 490.667-220.117 490.667-490.667s-220.117-490.667-490.667-490.667-490.667 220.117-490.667 490.667 220.117 490.667 490.667 490.667zM512 960c-282.773 0-512-229.227-512-512s229.227-512 512-512 512 229.227 512 512-229.227 512-512 512v0zM300.352 684.8v-102.805h140.608v102.805h22.549v-236.8h-22.549v114.752h-140.608v-114.752h-22.549v236.8h22.549zM512 682.667h234.667v-21.333h-234.667v21.333zM512 576h234.667v-21.333h-234.667v21.333zM512 469.333h234.667v-21.333h-234.667v21.333zM277.333 362.667h469.333v-21.333h-469.333v21.333zM277.333 256h469.333v-21.333h-469.333v21.333z" />
<glyph unicode="&#xe610;" glyph-name="Image" d="M512 938.667c270.549 0 490.667-220.117 490.667-490.667s-220.117-490.667-490.667-490.667-490.667 220.117-490.667 490.667 220.117 490.667 490.667 490.667zM512 960c-282.773 0-512-229.227-512-512s229.227-512 512-512 512 229.227 512 512-229.227 512-512 512v0zM624.597 515.115l-156.203-175.851-97.429 38.699-50.965-121.963h384zM478.229 525.781c0-28.725-23.286-52.011-52.011-52.011s-52.011 23.286-52.011 52.011c0 28.725 23.286 52.011 52.011 52.011s52.011-23.286 52.011-52.011zM256 682.667v-490.667h512v490.667h-512zM746.667 213.333h-469.333v448h469.333v-448z" />
<glyph unicode="&#xe611;" glyph-name="imageshow" d="M512 938.667c270.933 0 490.667-219.733 490.667-490.667s-219.733-490.667-490.667-490.667c-270.933 0-490.667 219.733-490.667 490.667s219.733 490.667 490.667 490.667zM512 960c-283.733 0-512-228.267-512-512s228.267-512 512-512c283.733 0 512 228.267 512 512s-228.267 512-512 512v0zM704 533.333h-106.667v104.533c0 32-36.267 66.133-68.267 66.133h-238.933c-32 0-55.467-34.133-55.467-66.133v-238.933c0-32 23.467-59.733 55.467-59.733h115.2v-115.2c0-32 27.733-55.467 59.733-55.467h238.933c32 0 64 23.467 64 55.467v238.933c0 32-32 70.4-64 70.4zM290.133 384c-12.8 0-12.8 4.267-12.8 17.067v236.8c0 12.8 0 23.467 12.8 23.467h238.933c12.8 0 25.6-10.667 25.6-23.467v-104.533h-89.6c-32 0-59.733-38.4-59.733-70.4v-78.933h-115.2zM554.667 490.667v-89.6c0-12.8-14.933-17.067-25.6-17.067h-81.067v78.933c0 12.8 4.267 27.733 17.067 27.733h89.6zM725.333 226.133c0-12.8-10.667-12.8-21.333-12.8h-238.933c-12.8 0-17.067 0-17.067 12.8v115.2h81.067c32 0 68.267 27.733 68.267 59.733v89.6h106.667c12.8 0 21.333-14.933 21.333-27.733v-236.8z" />
<glyph unicode="&#xe612;" glyph-name="Joomla" d="M521.344 938.667c270.549 0 490.667-220.117 490.667-490.667s-220.096-490.667-490.667-490.667-490.667 220.117-490.667 490.667c0 270.549 220.096 490.667 490.667 490.667zM521.344 960c-282.773 0-512-229.227-512-512s229.227-512 512-512c282.773 0 512 229.227 512 512s-229.269 512-512 512v0zM288.683 618.624c0 34.475 27.883 62.421 62.315 62.421 31.040 0 56.811-22.677 61.632-52.288 33.685 7.893 70.507-1.323 96.789-27.541l3.605-3.605-46.059-46.059-3.605 3.605c-14.955 14.933-39.104 14.933-54.165 0-14.933-15.040-14.933-39.296-0.085-54.229l9.067-8.981 94.763-94.763-45.995-46.037-103.851 103.701c-27.861 27.904-36.48 67.605-25.941 102.869-27.733 6.293-48.469 31.168-48.469 60.907v0zM423.616 497.365l46.059-46.059 103.829 103.723c14.933 14.955 39.104 14.955 54.059 0.085 14.933-14.933 14.933-39.211 0-54.165l-3.605-3.584 46.059-46.059 3.627 3.584c27.499 27.627 36.181 66.816 26.197 101.824 30.592 3.947 54.144 30.144 54.144 61.867 0.107 34.475-27.861 62.421-62.336 62.421-31.552 0-57.664-23.488-61.888-53.824-35.093 10.325-74.624 1.621-102.336-26.091l-103.808-103.723zM700.949 339.243c8.299 33.813-0.875 71.083-27.392 97.557l-8.981 9.045-46.059 46.059-48.576 48.704-46.059-46.059 48.555-48.704 46.080-45.973 8.981-9.045c15.019-15.040 15.019-39.232 0.085-54.080-14.955-14.912-39.211-14.912-54.059 0l-3.584 3.541-46.016-46.037 3.541-3.541c28.032-28.032 68.117-36.587 103.552-25.749 5.781-28.501 30.955-49.963 61.163-49.963 34.453 0 62.443 27.968 62.443 62.464-0.021 31.424-23.339 57.536-53.675 61.781v0zM613.035 394.411l-46.059 45.973-103.616-103.723c-14.848-14.827-39.211-14.955-54.165 0.085-14.933 14.955-14.933 39.211-0.085 54.165l3.605 3.499-46.059 45.973-3.541-3.413c-26.795-26.816-35.776-64.597-27.072-98.709-27.52-6.528-48-31.339-48-60.779 0-34.453 27.947-62.549 62.421-62.549 29.611 0.128 54.507 20.8 60.843 48.448 34.027-8.427 71.552 0.576 98.112 27.157l9.067 9.045 45.995 46.208 48.555 48.619z" />
<glyph unicode="&#xe613;" glyph-name="ListAlt" d="M512 938.667c270.549 0 490.667-220.117 490.667-490.667s-220.117-490.667-490.667-490.667-490.667 220.117-490.667 490.667 220.117 490.667 490.667 490.667zM512 960c-282.773 0-512-229.227-512-512s229.227-512 512-512 512 229.227 512 512-229.227 512-512 512v0zM426.667 597.333h298.667v-21.333h-298.667v21.333zM426.667 448h298.667v-21.333h-298.667v21.333zM426.667 298.667h298.667v-21.333h-298.667v21.333zM298.667 618.667h64v-64h-64v64zM298.667 469.333h64v-64h-64v64zM298.667 320h64v-64h-64v64z" />
<glyph unicode="&#xe614;" glyph-name="list-basic" d="M192 640h64v-64h-64v64zM320 640h512v-64h-512v64zM192 512h64v-64h-64v64zM320 512h512v-64h-512v64zM193.344 384h62.656v-64h-62.656v64zM320 384h512v-64h-512v64z" />
<glyph unicode="&#xe615;" glyph-name="list-special-1" d="M320 448h384v-64h-384v64zM320 769.344h384v-257.344h-384v257.344zM320 320h384v-64h-384v64zM320 192h384v-64h-384v64z" />
<glyph unicode="&#xe616;" glyph-name="list-special-2" d="M128 640h320v-256h-320v256zM512 640h384v-64h-384v64zM512 512h384v-64h-384v64zM512 384h384v-64h-384v64z" />
<glyph unicode="&#xe617;" glyph-name="list" d="M160 704h128v-128h-128v128zM352 704h512v-128h-512v128zM160 512h128v-128h-128v128zM352 512h512v-128h-512v128zM160 320h128v-128h-128v128zM352 320h512v-128h-512v128z" />
<glyph unicode="&#xe618;" glyph-name="market" d="M512 938.667c270.592 0 490.667-220.117 490.667-490.667s-220.075-490.667-490.667-490.667c-270.549 0-490.667 220.117-490.667 490.667s220.096 490.667 490.667 490.667zM512 960c-282.773 0-512-229.227-512-512s229.227-512 512-512c282.795 0 512 229.227 512 512s-229.248 512-512 512v0zM298.667 618.667h21.333v-362.667h-21.333v362.667zM298.667 277.333h426.667v-21.333h-426.667v21.333zM682.667 320h-320l64.469 149.333 63.275-21.333 64.171 64 62.379-21.333 65.045 64h0.661z" />
<glyph unicode="&#xe619;" glyph-name="Menu" d="M512 938.667c270.549 0 490.667-220.117 490.667-490.667s-220.117-490.667-490.667-490.667-490.667 220.117-490.667 490.667 220.117 490.667 490.667 490.667zM512 960c-282.773 0-512-229.227-512-512s229.227-512 512-512 512 229.227 512 512-229.227 512-512 512v0zM746.667 576h-469.333v106.667h469.333v-106.667zM298.667 597.333h426.667v64h-426.667v-64zM277.333 490.667v-106.667h256v21.333h-234.667v64h426.667v-42.667h21.333v64zM298.667 234.667v64h234.667v21.333h-256v-106.667h256v21.333zM679.701 305.579c0-9.614-7.794-17.408-17.408-17.408s-17.408 7.794-17.408 17.408c0 9.614 7.794 17.408 17.408 17.408s17.408-7.794 17.408-17.408zM741.461 260.736l8.555 20.608-20.16 18.624c0.32 3.733 0.32 7.445 0 11.264l20.096 18.624-8.512 20.587-27.477-1.152c-2.411 2.923-5.077 5.547-7.915 7.957l1.067 27.435-20.565 8.512-18.624-20.117c-3.712 0.32-7.467 0.32-11.285 0l-18.624 20.117-2.453-1.003-15.573-6.464-2.539-1.024 1.088-27.435c-2.901-2.453-5.504-5.12-7.957-8l-27.435 1.088-8.533-20.587 20.181-18.603c-0.32-3.733-0.32-7.509 0-11.307l-20.181-18.624 8.533-20.587 27.435 1.152c2.453-2.923 5.077-5.568 7.957-8l-1.045-27.413 20.565-8.512 18.645 20.181c3.691-0.363 7.509-0.363 11.264 0l18.624-20.181 20.587 8.512-1.152 27.413c2.923 2.453 5.547 5.141 8 8l27.435-1.067zM680.405 261.824c-24.149-10.005-51.861 1.472-61.845 25.621-9.963 24.149 1.472 51.84 25.621 61.888 24.149 10.027 51.84-1.472 61.845-25.6 10.005-24.171-1.472-51.883-25.621-61.909z" />
<glyph unicode="&#xe61a;" glyph-name="Meta" d="M512 938.667c270.549 0 490.667-220.117 490.667-490.667s-220.117-490.667-490.667-490.667-490.667 220.117-490.667 490.667 220.117 490.667 490.667 490.667zM512 960c-282.773 0-512-229.227-512-512s229.227-512 512-512 512 229.227 512 512-229.227 512-512 512v0zM726.507 341.333l-107.84 131.819v145.515h42.667v64h-298.667v-64h42.667v-145.515l-107.84-131.819h193.173v-128l21.333-42.667 21.333 42.667v128h193.173zM342.507 362.667l84.16 102.848v174.485h-42.667v21.333h256v-21.333h-42.667v-174.485l84.16-102.848h-338.987z" />
<glyph unicode="&#xe61b;" glyph-name="Page" d="M512 938.667c270.549 0 490.667-220.117 490.667-490.667s-220.117-490.667-490.667-490.667-490.667 220.117-490.667 490.667 220.117 490.667 490.667 490.667zM512 960c-282.773 0-512-229.227-512-512s229.227-512 512-512 512 229.227 512 512-229.227 512-512 512v0zM704 192h-384v512h384v-512zM341.333 213.333h341.333v469.333h-341.333v-469.333zM618.667 618.667v-21.333h-213.333v21.333h213.333zM640 640h-256v-64h256v64zM512 512v-42.667h-106.667v42.667h106.667zM533.333 533.333h-149.333v-85.333h149.333v85.333zM618.667 512v-234.667h-21.333v234.667h21.333zM640 533.333h-64v-277.333h64v277.333zM512 384v-106.667h-106.667v106.667h106.667zM533.333 405.333h-149.333v-149.333h149.333v149.333z" />
<glyph unicode="&#xe61c;" glyph-name="Post" d="M512 938.667c270.549 0 490.667-220.117 490.667-490.667s-220.117-490.667-490.667-490.667-490.667 220.117-490.667 490.667 220.117 490.667 490.667 490.667zM512 960c-282.773 0-512-229.227-512-512s229.227-512 512-512 512 229.227 512 512-229.227 512-512 512v0zM704 192h-384v512h263.275l120.725-128.213v-383.787zM341.333 213.333h341.333v354.005l-108.608 115.328h-232.725v-469.333zM533.333 597.333v-42.667h-106.667v42.667h106.667zM554.667 618.667h-149.333v-85.333h149.333v85.333zM405.333 469.333h213.333v-21.333h-213.333v21.333zM405.333 384h213.333v-21.333h-213.333v21.333zM405.333 298.667h213.333v-21.333h-213.333v21.333z" />
<glyph unicode="&#xe61d;" glyph-name="PricingTable" d="M512 938.667c270.549 0 490.667-220.117 490.667-490.667s-220.117-490.667-490.667-490.667c-270.549 0-490.667 220.117-490.667 490.667s220.117 490.667 490.667 490.667zM512 960c-282.773 0-512-229.227-512-512s229.227-512 512-512 512 229.227 512 512-229.227 512-512 512v0zM661.333 682.667v-469.333h-298.667v469.333h298.667zM682.667 704h-341.333v-512h341.333v512zM810.667 277.333h-85.333v21.333h64v277.333h-64v21.333h85.333zM298.667 277.333h-85.333v320h85.333v-21.333h-64v-277.333h64zM499.541 294.848v39.147c-22.485 0.384-45.739 7.36-59.285 17.045l9.301 25.963c13.952-9.301 34.091-16.64 55.808-16.64 27.52 0 46.123 15.872 46.123 37.973 0 21.291-15.125 34.475-43.797 46.101-39.531 15.509-63.936 33.323-63.936 67.051 0 32.149 22.848 56.576 58.517 62.379v39.125h24v-37.589c23.275-0.789 39.147-6.976 50.368-13.547l-9.685-25.579c-8.128 4.629-24.021 13.163-48.811 13.163-29.824 0-41.088-17.835-41.088-33.323 0-20.139 14.336-30.208 48.064-44.16 39.893-16.256 60.053-36.437 60.053-70.933 0-30.592-21.312-59.264-61.227-65.856v-40.32h-24.405z" />
<glyph unicode="&#xe61e;" glyph-name="ProcessBar" d="M512 938.667c270.549 0 490.667-220.117 490.667-490.667s-220.117-490.667-490.667-490.667-490.667 220.117-490.667 490.667 220.117 490.667 490.667 490.667zM512 960c-282.773 0-512-229.227-512-512s229.227-512 512-512 512 229.227 512 512-229.227 512-512 512v0zM256 682.667v-128h512v128h-512zM746.667 576h-341.333v85.333h341.333v-85.333zM256 384h512v128h-512v-128zM746.667 490.667v-85.333h-85.333v85.333h85.333zM256 213.333h512v128h-512v-128zM746.667 320v-85.333h-170.667v85.333h170.667z" />
<glyph unicode="&#xe61f;" glyph-name="ProcessCircleAlt" d="M512 938.667c270.549 0 490.667-220.117 490.667-490.667s-220.117-490.667-490.667-490.667c-270.549 0-490.667 220.117-490.667 490.667s220.117 490.667 490.667 490.667zM512 960c-282.773 0-512-229.227-512-512s229.227-512 512-512 512 229.227 512 512-229.227 512-512 512v0zM811.328 449.877c-1.749 81.707-38.805 155.115-93.909 207.915-55.957 53.611-130.56 86.016-205.76 84.395v-0.533c-169.813-4.693-300.309-132.587-302.571-294.037h-0.512c0.021-1.856 0.32-3.584 0.384-5.44 0-1.749-0.192-3.456-0.149-5.269l0.555 0.021c4.459-80.789 39.125-152.021 92.587-203.221 55.936-53.589 132.011-85.376 214.4-83.605 164.651 3.584 298.496 135.104 294.976 299.776zM515.627 656.491v0.299c53.248 0.512 105.493-21.973 144.619-59.456 38.656-37.035 64.448-88.576 65.707-146.624 2.517-117.611-96.469-212.779-214.101-215.317-58.795-1.259-112.555 20.203-152 58.027-38.336 36.715-62.912 88.917-65.621 150.485 0.341 116.928 96.469 209.899 221.397 212.587zM515.883 171.477c-74.539-1.6-145.28 25.984-199.211 77.653-49.237 47.168-79.147 109.611-85.547 177.621l42.752 0.939c5.888-58.325 30.763-110.891 71.232-149.696 44.459-42.581 103.851-65.28 167.189-63.915 132.331 2.837 237.739 109.184 234.987 237.099-1.323 60.779-26.987 118.165-72.277 161.579-39.275 37.611-89.536 60.565-140.651 64.789l-0.917 42.773c60.608-4.288 121.28-32.021 169.195-77.952 54.784-52.48 85.781-121.003 87.36-192.96 1.557-73.301-26.197-142.464-78.229-194.795-51.733-52.032-121.28-81.557-195.883-83.136zM405.909 492.544c0 6.315 1.195 12.203 3.584 17.664s5.632 10.24 9.728 14.336 8.875 7.339 14.336 9.728c5.461 2.389 11.349 3.584 17.664 3.584s12.203-1.195 17.664-3.584c5.461-2.389 10.24-5.632 14.336-9.728 4.075-4.096 7.339-8.875 9.728-14.336 2.368-5.461 3.584-11.349 3.584-17.664s-1.216-12.203-3.584-17.664c-2.389-5.461-5.653-10.24-9.728-14.336-4.096-4.096-8.896-7.339-14.336-9.728-5.461-2.389-11.349-3.584-17.664-3.584s-12.203 1.195-17.664 3.584c-5.461 2.389-10.24 5.632-14.336 9.728s-7.339 8.875-9.728 14.336c-2.389 5.461-3.584 11.349-3.584 17.664zM425.877 492.544c0-7.168 2.432-13.184 7.296-18.048s10.88-7.296 18.048-7.296 13.184 2.432 18.048 7.296 7.296 10.88 7.296 18.048-2.432 13.184-7.296 18.048-10.88 7.296-18.048 7.296-13.184-2.432-18.048-7.296-7.296-10.88-7.296-18.048zM456.597 344.064l-15.36 7.936 113.92 189.44 15.36-7.936-113.92-189.44zM514.475 392.704c0 6.315 1.195 12.203 3.584 17.664 2.368 5.461 5.632 10.219 9.728 14.336 4.075 4.075 8.875 7.339 14.315 9.728 5.461 2.389 11.349 3.584 17.643 3.584 6.336 0 12.203-1.195 17.664-3.584 5.483-2.389 10.219-5.653 14.336-9.728 4.075-4.096 7.36-8.875 9.749-14.336 2.368-5.461 3.584-11.349 3.584-17.664 0-6.336-1.216-12.203-3.584-17.664-2.389-5.461-5.675-10.24-9.749-14.336s-8.853-7.339-14.336-9.728c-5.461-2.389-11.328-3.584-17.664-3.584-6.293 0-12.181 1.195-17.643 3.584-5.483 2.389-10.219 5.632-14.315 9.728-4.096 4.075-7.36 8.875-9.728 14.336-2.411 5.461-3.584 11.328-3.584 17.664zM534.421 392.704c0-7.168 2.432-13.184 7.296-18.048 4.885-4.885 10.923-7.296 18.091-7.296s13.163 2.389 18.048 7.296c4.885 4.864 7.296 10.88 7.296 18.048s-2.411 13.163-7.296 18.048-10.88 7.296-18.048 7.296-13.184-2.411-18.091-7.296c-4.864-4.885-7.296-10.88-7.296-18.048z" />
<glyph unicode="&#xe620;" glyph-name="Promotion" d="M512 938.667c270.549 0 490.667-220.117 490.667-490.667s-220.117-490.667-490.667-490.667-490.667 220.117-490.667 490.667 220.117 490.667 490.667 490.667zM512 960c-282.773 0-512-229.227-512-512s229.227-512 512-512 512 229.227 512 512-229.227 512-512 512v0zM692.437 551.189l-70.443-19.925-139.584 110.357c-6.997 11.285-18.368 19.819-32.448 22.485-3.093 0.597-6.187 0.875-9.237 0.875-23.104 0-43.712-16.405-48.192-39.936-0.683-3.627-0.896-7.211-0.768-10.731l-70.379-168.043-60.053-16.981 58.048-205.291 431.104 121.92-58.048 205.269zM440.747 643.648c1.749 0 3.499-0.171 5.248-0.491 15.040-2.859 24.96-17.429 22.101-32.469-2.496-13.099-13.952-22.592-27.243-22.592-1.749 0-3.499 0.171-5.248 0.491-11.691 2.219-20.075 11.541-21.973 22.635l0.299 0.725-0.32 0.128c-0.405 2.944-0.683 5.931-0.107 9.003 2.496 13.077 13.952 22.571 27.243 22.571zM402.709 585.195c7.061-8.768 16.981-15.296 28.885-17.579 3.093-0.597 6.187-0.875 9.237-0.875 23.125 0 43.712 16.405 48.192 39.936 0.149 0.789 0.107 1.557 0.213 2.347l107.413-84.928-249.003-70.421 55.061 131.52zM287.68 414.571l390.059 110.293 46.443-164.224-390.037-110.293-46.464 164.224zM566.172 448.992l5.801-20.506-143.689-40.649-5.801 20.506 143.689 40.649zM384.136 308.835l-5.799 20.509 266.878 75.462 5.799-20.509-266.878-75.462z" />
<glyph unicode="&#xe621;" glyph-name="QRCodeAlt" d="M512 938.667c270.549 0 490.667-220.117 490.667-490.667s-220.117-490.667-490.667-490.667-490.667 220.117-490.667 490.667 220.117 490.667 490.667 490.667zM512 960c-282.773 0-512-229.227-512-512s229.227-512 512-512 512 229.227 512 512-229.227 512-512 512v0zM704 362.667h-21.333v-106.667h21.333v42.667h64v21.333h-64zM746.667 213.333h-64v-21.333h85.333v64h-21.333zM533.333 298.667h21.333v-64h-21.333v64zM618.667 256h-21.333v-42.667h-21.333v-21.333h64v21.333h-21.333zM256 469.333h234.667v234.667h-234.667v-234.667zM277.333 682.667h192v-192h-192v192zM533.333 704v-234.667h234.667v234.667h-234.667zM746.667 490.667h-192v192h192v-192zM320 362.667h106.667v-106.667h-106.667v106.667zM320 640h106.667v-106.667h-106.667v106.667zM597.333 640h106.667v-106.667h-106.667v106.667zM256 192h234.667v234.667h-234.667v-234.667zM277.333 405.333h192v-192h-192v192zM554.667 362.667v64h-21.333v-85.333h85.333v-42.667h21.333v64h-21.333zM597.333 426.667v-21.333h149.333v-42.667h21.333v64h-21.333z" />
<glyph unicode="&#xe622;" glyph-name="RSS" d="M512 938.667c270.549 0 490.667-220.117 490.667-490.667s-220.117-490.667-490.667-490.667-490.667 220.117-490.667 490.667 220.117 490.667 490.667 490.667zM512 960c-282.773 0-512-229.227-512-512s229.227-512 512-512 512 229.227 512 512-229.227 512-512 512v0zM405.333 266.667c-41.173 0-74.667 33.493-74.667 74.667s33.493 74.667 74.667 74.667 74.667-33.493 74.667-74.667-33.493-74.667-74.667-74.667zM405.333 394.667c-29.397 0-53.333-23.915-53.333-53.333s23.936-53.333 53.333-53.333 53.333 23.915 53.333 53.333-23.936 53.333-53.333 53.333zM768 330.667c-5.888 0-10.667 4.779-10.667 10.667 0 194.091-157.909 352-352 352-5.888 0-10.667 4.779-10.667 10.667s4.779 10.667 10.667 10.667c205.845 0 373.333-167.488 373.333-373.333 0-5.888-4.779-10.667-10.667-10.667zM618.667 330.667c-5.888 0-10.667 4.779-10.667 10.667 0 111.744-90.923 202.667-202.667 202.667-5.888 0-10.667 4.779-10.667 10.667s4.779 10.667 10.667 10.667c123.52 0 224-100.48 224-224 0-5.888-4.779-10.667-10.667-10.667z" />
<glyph unicode="&#xe623;" glyph-name="SearchAlt" d="M512 938.667c270.549 0 490.667-220.117 490.667-490.667s-220.117-490.667-490.667-490.667-490.667 220.117-490.667 490.667 220.117 490.667 490.667 490.667zM512 960c-282.773 0-512-229.227-512-512s229.227-512 512-512 512 229.227 512 512-229.227 512-512 512v0zM732.885 242.219l-111.211 111.211c33.664 37.248 54.336 86.443 54.336 140.587 0 115.989-94.016 210.005-210.005 210.005s-210.005-94.037-210.005-210.027c0-115.989 94.016-210.005 210.005-210.005 54.144 0 103.339 20.672 140.587 54.336l111.211-111.211c2.069-2.069 4.8-3.115 7.531-3.115s5.461 1.045 7.552 3.115c4.16 4.181 4.16 10.923 0 15.104zM466.005 305.323c-104.021 0-188.672 84.629-188.672 188.672s84.629 188.672 188.672 188.672 188.672-84.629 188.672-188.672-84.651-188.672-188.672-188.672z" />
<glyph unicode="&#xe624;" glyph-name="socials" d="M512 938.667c270.592 0 490.667-220.117 490.667-490.667s-220.075-490.667-490.667-490.667c-270.549 0-490.667 220.117-490.667 490.667s220.096 490.667 490.667 490.667zM512 960c-282.773 0-512-229.227-512-512s229.227-512 512-512c282.795 0 512 229.227 512 512s-229.248 512-512 512v0zM309.333 373.333c-35.285 0-64 28.715-64 64 0 35.307 28.715 64 64 64s64-28.715 64-64c0-35.285-28.715-64-64-64zM530.539 598.592c-16.96 30.955-5.589 69.909 25.365 86.869s69.909 5.589 86.869-25.344c16.96-30.955 5.589-69.909-25.365-86.891-30.933-16.981-69.909-5.611-86.869 25.365zM650.923 224c-35.285-0.149-64.128 28.459-64.256 63.744-0.149 35.285 28.459 64.128 63.744 64.256 35.285 0.149 64.128-28.459 64.256-63.744 0.149-35.307-28.459-64.128-63.744-64.256zM346.812 478.818l193.225 133.15 12.105-17.566-193.225-133.15-12.105 17.566zM353.067 429.525l276.503-119.75-8.469-19.556-276.503 119.75 8.469 19.556z" />
<glyph unicode="&#xe625;" glyph-name="Tab" d="M512 938.667c270.549 0 490.667-220.117 490.667-490.667s-220.117-490.667-490.667-490.667-490.667 220.117-490.667 490.667 220.117 490.667 490.667 490.667zM512 960c-282.773 0-512-229.227-512-512s229.227-512 512-512 512 229.227 512 512-229.227 512-512 512v0zM768 213.333h-512v469.333h213.333v-170.667h298.667v-298.667zM277.333 234.667h469.333v256h-298.667v170.667h-170.667v-426.667zM618.667 533.333h-106.667v128h106.667v-128zM533.333 554.667h64v85.333h-64v-85.333zM768 533.333h-106.667v128h106.667v-128zM682.667 554.667h64v85.333h-64v-85.333z" />
<glyph unicode="&#xe626;" glyph-name="Table" d="M512 938.667c270.549 0 490.667-220.117 490.667-490.667s-220.117-490.667-490.667-490.667-490.667 220.117-490.667 490.667 220.117 490.667 490.667 490.667zM512 960c-282.773 0-512-229.227-512-512s229.227-512 512-512 512 229.227 512 512-229.227 512-512 512v0zM597.333 682.667h-320v-469.333h469.333v469.333h-149.333zM576 661.333v-128h-128v128h128zM576 512v-128h-128v128h128zM298.667 661.333h128v-128h-128v128zM298.667 512h128v-128h-128v128zM298.667 234.667v128h128v-128h-128zM448 234.667v128h128v-128h-128zM725.333 234.667h-128v128h128v-128zM725.333 384h-128v128h128v-128zM597.333 533.333v128h128v-128h-128z" />
<glyph unicode="&#xe627;" glyph-name="TagCloud" d="M512 938.667c270.549 0 490.667-220.117 490.667-490.667s-220.117-490.667-490.667-490.667c-270.549 0-490.667 220.117-490.667 490.667s220.117 490.667 490.667 490.667zM512 960c-282.773 0-512-229.227-512-512s229.227-512 512-512 512 229.227 512 512-229.227 512-512 512v0zM673.92 449.109l14.827 0.107-22.208 22.208c0.853-2.389 1.963-4.629 2.731-7.083l4.651-15.232zM652.501 533.333h-27.285c4.757-4.309 9.237-8.96 13.461-13.845l13.824 13.845zM771.627 400.128c6.827-12.843 11.051-27.243 11.051-42.795 0-50.731-41.28-91.989-91.989-91.989-21.931 0-42.667 7.872-59.904 22.784l-12.075 10.475-13.44-8.661c-24.939-16.085-53.739-24.597-83.264-24.597-34.645 0-67.456 11.371-94.891 32.917l-15.573 12.203-13.355-14.635c-17.941-19.669-42.155-30.507-68.181-30.507-51.093 0-92.672 41.579-92.672 92.693 0 51.093 41.579 92.672 92.672 92.672 6.357 0 12.757-0.704 19.52-2.155l19.307-4.139 5.632 18.923c16.213 54.528 61.888 94.848 116.203 106.368v22.101c-65.323-11.797-118.016-59.755-136.661-122.432-7.744 1.664-15.765 2.645-24 2.645-62.955 0-114.005-51.051-114.005-114.005s51.029-114.005 114.005-114.005c33.365 0 63.104 14.592 83.947 37.419 29.803-23.381 67.243-37.419 108.053-37.419 34.965 0 67.477 10.325 94.827 27.989 19.883-17.237 45.483-27.989 73.835-27.989 62.592 0 113.323 50.709 113.323 113.323 0 21.483-6.336 41.344-16.704 58.475l-15.659-15.659zM661.333 661.333l-149.333-1.323v-148.011l170.667-170.667 149.333 149.333-170.667 170.667zM618.667 554.667h-42.667v42.667h42.667v-42.667z" />
<glyph unicode="&#xe628;" glyph-name="Testimonial" d="M512 938.667c270.549 0 490.667-220.117 490.667-490.667s-220.117-490.667-490.667-490.667c-270.549 0-490.667 220.117-490.667 490.667s220.117 490.667 490.667 490.667zM512 960c-282.773 0-512-229.227-512-512s229.227-512 512-512 512 229.227 512 512-229.227 512-512 512v0zM640 576h21.333v-21.333h-21.333v21.333zM554.667 576h21.333v-21.333h-21.333v21.333zM362.667 704v-83.819c6.933 2.453 13.995 4.565 21.333 6.037v56.448h362.667v-336.917l-102.272 102.251h-73.984c-1.088-7.275-2.581-14.421-4.672-21.333h69.803l132.459-132.416v409.749h-405.333zM530.901 228.437h-207.957c-37.824 0-63.552 23.083-63.552 61.653 0 53.781 12.608 136.363 82.325 136.363 7.381 0 38.549-33.109 85.184-33.109s77.803 33.109 85.184 33.109c69.76 0 82.325-82.581 82.325-136.363 0.021-38.571-25.685-61.653-63.509-61.653zM426.923 411.157c-50.432 0-91.371 40.917-91.371 91.392 0 50.453 40.939 91.371 91.371 91.371s91.371-40.917 91.371-91.371c0-50.453-40.939-91.392-91.371-91.392z" />
<glyph unicode="&#xe629;" glyph-name="Text" d="M512 938.667c270.549 0 490.667-220.117 490.667-490.667s-220.117-490.667-490.667-490.667-490.667 220.117-490.667 490.667 220.117 490.667 490.667 490.667zM512 960c-282.773 0-512-229.227-512-512s229.227-512 512-512 512 229.227 512 512-229.227 512-512 512v0zM398.123 684.373l92.864-236.8h-24.213l-28.864 73.621h-107.776l-28.523-73.621h-23.872l95.168 236.8h25.216zM430.272 540.437l-45.76 121.365-47.424-121.365h93.184zM469.333 682.667h277.333v-21.333h-277.333v21.333zM512 576h234.667v-21.333h-234.667v21.333zM554.667 469.333h192v-21.333h-192v21.333zM277.333 362.667h469.333v-21.333h-469.333v21.333zM277.333 256h469.333v-21.333h-469.333v21.333z" />
<glyph unicode="&#xe62a;" glyph-name="Tooltip" d="M512 938.667c270.549 0 490.667-220.117 490.667-490.667s-220.117-490.667-490.667-490.667c-270.549 0-490.667 220.117-490.667 490.667s220.117 490.667 490.667 490.667zM512 960c-282.773 0-512-229.227-512-512s229.227-512 512-512 512 229.227 512 512-229.227 512-512 512v0zM512 188.48l-85.781 131.52h-170.219v341.333h512v-341.333h-170.219l-85.781-131.52zM277.333 341.333h160.448l74.219-113.813 74.219 113.813h160.448v298.667h-469.333v-298.667zM362.667 554.667h298.667v-21.333h-298.667v21.333zM362.667 448h298.667v-21.333h-298.667v21.333z" />
<glyph unicode="&#xe62b;" glyph-name="uniform" d="M512 938.667c270.933 0 490.667-219.733 490.667-490.667s-219.733-490.667-490.667-490.667c-270.933 0-490.667 219.733-490.667 490.667s219.733 490.667 490.667 490.667zM512 960c-283.733 0-512-228.267-512-512s228.267-512 512-512c283.733 0 512 228.267 512 512s-228.267 512-512 512v0zM768 471.467c19.2 0 36.267-12.8 36.267-32s-17.067-32-36.267-32h-492.8c-19.2 0-36.267 12.8-36.267 32s17.067 32 36.267 32h492.8zM765.867 512h-490.667c-40.533 0-74.667-34.133-74.667-74.667s34.133-74.667 74.667-74.667h492.8c40.533 0 74.667 34.133 74.667 74.667s-34.133 74.667-76.8 74.667v0zM768 642.133c19.2 0 36.267-12.8 36.267-32s-17.067-32-36.267-32h-492.8c-19.2 0-36.267 12.8-36.267 32s17.067 32 36.267 32h492.8zM765.867 682.667h-490.667c-40.533 0-74.667-34.133-74.667-74.667s34.133-74.667 74.667-74.667h492.8c40.533 0 74.667 34.133 74.667 74.667s-34.133 74.667-76.8 74.667v0zM768 298.667c19.2 0 36.267-12.8 36.267-32s-17.067-32-36.267-32h-492.8c-19.2 0-36.267 12.8-36.267 32s17.067 32 36.267 32h492.8zM765.867 341.333h-490.667c-40.533 0-74.667-34.133-74.667-74.667s34.133-74.667 74.667-74.667h492.8c40.533 0 74.667 34.133 74.667 74.667s-34.133 74.667-76.8 74.667v0z" />
<glyph unicode="&#xe62c;" glyph-name="Video" d="M512 938.667c270.549 0 490.667-220.117 490.667-490.667s-220.117-490.667-490.667-490.667-490.667 220.117-490.667 490.667 220.117 490.667 490.667 490.667zM512 960c-282.773 0-512-229.227-512-512s229.227-512 512-512 512 229.227 512 512-229.227 512-512 512v0zM256 704v-512h512v512h-512zM746.667 213.333h-469.333v362.667h469.333v-362.667zM277.333 597.333v85.333h469.333v-85.333h-469.333zM603.051 389.333l-155.051 89.515v-179.029zM323.104 617.37l-15.085 15.085 30.17 30.17 15.085-15.085-30.17-30.17zM408.437 617.365l-15.085 15.085 30.17 30.17 15.085-15.085-30.17-30.17zM493.769 617.363l-15.085 15.085 30.17 30.17 15.085-15.085-30.17-30.17zM579.1 617.359l-15.085 15.085 30.17 30.17 15.085-15.085-30.17-30.17zM649.361 632.469l30.17 30.17 15.085-15.085-30.17-30.17-15.085 15.085z" />
<glyph unicode="&#xe62d;" glyph-name="weather" d="M512 938.667c270.571 0 490.667-220.117 490.667-490.667s-220.096-490.667-490.667-490.667c-270.549 0-490.667 220.117-490.667 490.667s220.096 490.667 490.667 490.667zM512 960c-282.773 0-512-229.227-512-512s229.227-512 512-512c282.795 0 512 229.227 512 512s-229.248 512-512 512v0zM730.133 419.883c7.083 15.040 11.2 31.701 11.2 49.451 0 64.811-52.523 117.333-117.333 117.333-37.867 0-71.339-18.091-92.779-45.931-17.323 5.824-35.605 9.024-54.443 9.024-78.699 0-146.219-53.739-165.248-128.171-1.835 0.128-3.627 0.171-5.419 0.171-58.837 0-106.667-50.709-106.667-109.547s47.829-109.547 106.667-109.547h405.333c58.795 0 106.667 50.709 106.667 109.547 0.021 52.437-38.101 98.795-87.979 107.669zM624 565.333c53.013 0 96-42.987 96-96 0-16.256-4.288-31.403-11.541-44.736-11.008 47.189-53.205 82.517-103.659 82.517-4.587 0-9.216-0.363-14.037-1.088-11.755 10.581-24.704 19.371-38.549 26.219 17.493 20.139 42.965 33.088 71.787 33.088zM711.467 224h-405.333c-47.125 0-85.333 41.088-85.333 88.213s38.208 86.784 85.333 86.784c7.829 0 15.296-0.683 22.507-2.667 8.875 74.005 71.744 131.733 148.16 131.733 42.091 0 80.043-17.323 107.2-45.333 6.656 1.685 13.589 2.944 20.8 2.944 47.125 0 85.333-38.165 85.333-85.291 0-1.045-0.299-2.048-0.341-3.093 6.955 1.835 14.123 3.115 21.675 3.115 47.125 0 85.333-41.088 85.333-88.213s-38.208-88.192-85.333-88.192zM618.667 629.333c5.888 0 10.667 4.779 10.667 10.667v42.667c0 5.888-4.779 10.667-10.667 10.667s-10.667-4.779-10.667-10.667v-42.667c0-5.888 4.779-10.667 10.667-10.667zM495.765 582.464c4.16-4.16 10.923-4.181 15.083 0 4.16 4.16 4.16 10.923 0 15.083l-30.165 30.165c-4.16 4.181-10.923 4.16-15.083 0-4.16-4.181-4.16-10.901 0-15.083l30.165-30.165zM842.667 469.333c0 5.888-4.8 10.667-10.688 10.667h-42.624c-5.888 0-10.688-4.779-10.688-10.667v0c0-5.888 4.8-10.667 10.688-10.667h42.624c5.888 0 10.688 4.779 10.688 10.667v0zM737.152 582.464c4.139-4.16 10.901-4.16 15.083 0.021l30.123 30.144c4.181 4.181 4.181 10.923 0.043 15.083h-0.021c-4.16 4.16-10.923 4.16-15.104 0l-30.123-30.144c-4.203-4.181-4.203-10.923 0-15.104v0z" />
</font>
</defs>
</svg>
